<?xml version="1.0" encoding="UTF-8"?>
<svg width="28px" height="28px" viewBox="0 0 28 28" version="1.1" xmlns="http://www.w3.org/2000/svg" xmlns:xlink="http://www.w3.org/1999/xlink">
    <title>icon-shop</title>
    <g id="icon-shop" stroke="none" stroke-width="1" fill="none" fill-rule="evenodd">
        <path d="M16.9715163,3.05684867 C18.0760858,3.05684867 18.9715163,3.95227917 18.9715163,5.05684867 L18.9705163,6.80684867 L21.8715163,6.80684867 C22.9258781,6.80684867 23.7896814,7.62272646 23.8660306,8.65758632 L23.8715163,8.80684867 L23.8715163,21.0699208 C23.8715163,23.2790598 22.0806553,25.0699208 19.8715163,25.0699208 L7.87151631,25.0699208 C5.66237731,25.0699208 3.87151631,23.2790598 3.87151631,21.0699208 L3.87151631,8.80684867 C3.87151631,7.70227917 4.76694681,6.80684867 5.87151631,6.80684867 L8.77151631,6.80684867 L8.77151631,5.05684867 C8.77151631,3.95227917 9.66694681,3.05684867 10.7715163,3.05684867 L16.9715163,3.05684867 Z M21.8715163,8.80684867 L5.87151631,8.80684867 L5.87151631,21.0699208 C5.87151631,22.1744903 6.76694681,23.0699208 7.87151631,23.0699208 L19.8715163,23.0699208 C20.9760858,23.0699208 21.8715163,22.1744903 21.8715163,21.0699208 L21.8715163,8.80684867 Z M16.9715163,5.05684867 L10.7715163,5.05684867 L10.7715163,6.80684867 L16.9705163,6.80684867 L16.9715163,5.05684867 Z" id="Combined-Shape" fill="#000000" fill-rule="nonzero"></path>
    </g>
</svg>