<?xml version="1.0" encoding="UTF-8"?>
<svg width="1223px" height="324px" viewBox="0 0 1223 324" version="1.1" xmlns="http://www.w3.org/2000/svg" xmlns:xlink="http://www.w3.org/1999/xlink">
    <title>logo</title>
    <g id="Page-1" stroke="none" stroke-width="1" fill="none" fill-rule="evenodd">
        <g id="logo" transform="translate(-23.000000, -543.000000)" fill="#131415" fill-rule="nonzero">
            <g id="Group" transform="translate(28.247335, 548.400000)">
                <path d="M131.04,312.842683 C206.232,312.842683 262.08,254.186683 262.08,181.802683 C262.08,109.730683 206.232,50.7626827 131.04,50.7626827 C55.536,50.7626827 4.54747351e-13,109.730683 4.54747351e-13,181.802683 C4.54747351e-13,254.186683 55.536,312.842683 131.04,312.842683 Z M131.04,309.722683 C58.968,309.722683 9.36,247.634683 9.36,181.802683 C9.36,116.282683 58.968,53.8826827 131.04,53.8826827 C202.8,53.8826827 252.72,116.282683 252.72,181.802683 C252.72,247.634683 202.8,309.722683 131.04,309.722683 Z M414.648,312.842683 L522.912,71.9786827 L522.912,250.442683 L522.911998,250.937009 L522.911998,250.937009 L522.911201,254.309965 C522.910103,256.041725 522.907495,257.725313 522.9013,259.393121 L522.895389,260.754827 C522.893879,261.056938 522.892232,261.358819 522.890435,261.660665 L522.881295,263.019395 L522.881295,263.019395 L522.86988,264.381595 C522.7716,275.000203 522.444,286.291483 521.352,306.602683 L532.272,306.602683 C531.18,286.291483 530.8524,275.000203 530.75412,264.381595 L530.742705,263.019395 L530.742705,263.019395 L530.733565,261.660665 C530.731768,261.358819 530.730121,261.056938 530.728611,260.754827 L530.7227,259.393121 C530.716505,257.725313 530.713897,256.041725 530.712799,254.309965 L530.712799,109.2954 C530.713897,107.563641 530.716505,105.880052 530.7227,104.212245 L530.728611,102.850539 C530.730121,102.548428 530.731768,102.246547 530.733565,101.9447 L530.742705,100.585971 L530.742705,100.585971 L530.75412,99.2237707 C530.8524,88.6051627 531.18,77.3138827 532.272,57.0026827 L526.032,57.0026827 L416.208,301.610683 L302.328,57.0026827 L296.4,57.0026827 C297.492,77.3138827 297.8196,88.6051627 297.91788,99.2237707 L297.929295,100.585971 L297.929295,100.585971 L297.938435,101.9447 C297.940232,102.246547 297.941879,102.548428 297.943389,102.850539 L297.9493,104.212245 C297.955495,105.880052 297.958103,107.563641 297.959201,109.2954 L297.959201,254.309965 C297.958103,256.041725 297.955495,257.725313 297.9493,259.393121 L297.943389,260.754827 C297.941879,261.056938 297.940232,261.358819 297.938435,261.660665 L297.929295,263.019395 L297.929295,263.019395 L297.91788,264.381595 C297.8196,275.000203 297.492,286.291483 296.4,306.602683 L302.64,306.602683 C301.548,286.291483 301.2204,275.000203 301.12212,264.381595 L301.110705,263.019395 L301.110705,263.019395 L301.101565,261.660665 C301.099768,261.358819 301.098121,261.056938 301.096611,260.754827 L301.0907,259.393121 C301.084505,257.725313 301.081897,256.041725 301.080799,254.309965 L301.080002,250.937009 C301.08,250.77281 301.08,250.608043 301.08,250.442683 L301.08,72.9146827 L412.776,312.842683 L414.648,312.842683 Z M691.08,312.842683 L799.344,71.9786827 L799.344,250.442683 L799.343998,250.937009 L799.343998,250.937009 L799.343201,254.309965 C799.342103,256.041725 799.339495,257.725313 799.3333,259.393121 L799.327389,260.754827 C799.325879,261.056938 799.324232,261.358819 799.322435,261.660665 L799.313295,263.019395 L799.313295,263.019395 L799.30188,264.381595 C799.2036,275.000203 798.876,286.291483 797.784,306.602683 L808.704,306.602683 C807.612,286.291483 807.2844,275.000203 807.18612,264.381595 L807.174705,263.019395 L807.174705,263.019395 L807.165565,261.660665 C807.163768,261.358819 807.162121,261.056938 807.160611,260.754827 L807.1547,259.393121 C807.148505,257.725313 807.145897,256.041725 807.144799,254.309965 L807.144799,109.2954 C807.145897,107.563641 807.148505,105.880052 807.1547,104.212245 L807.160611,102.850539 C807.162121,102.548428 807.163768,102.246547 807.165565,101.9447 L807.174705,100.585971 L807.174705,100.585971 L807.18612,99.2237707 C807.2844,88.6051627 807.612,77.3138827 808.704,57.0026827 L802.464,57.0026827 L692.64,301.610683 L578.76,57.0026827 L572.832,57.0026827 C573.924,77.3138827 574.2516,88.6051627 574.34988,99.2237707 L574.361295,100.585971 L574.361295,100.585971 L574.370435,101.9447 C574.372232,102.246547 574.373879,102.548428 574.375389,102.850539 L574.3813,104.212245 C574.387495,105.880052 574.390103,107.563641 574.391201,109.2954 L574.391998,112.668357 C574.392,112.832556 574.392,112.997323 574.392,113.162683 L574.392,250.442683 L574.391998,250.937009 L574.391998,250.937009 L574.391201,254.309965 C574.390103,256.041725 574.387495,257.725313 574.3813,259.393121 L574.375389,260.754827 C574.373879,261.056938 574.372232,261.358819 574.370435,261.660665 L574.361295,263.019395 L574.361295,263.019395 L574.34988,264.381595 C574.2516,275.000203 573.924,286.291483 572.832,306.602683 L579.072,306.602683 C577.98,286.291483 577.6524,275.000203 577.55412,264.381595 L577.542705,263.019395 L577.542705,263.019395 L577.533565,261.660665 C577.531768,261.358819 577.530121,261.056938 577.528611,260.754827 L577.5227,259.393121 C577.516505,257.725313 577.513897,256.041725 577.512799,254.309965 L577.512,72.9146827 L689.208,312.842683 L691.08,312.842683 Z M1007.136,306.602683 L1013.376,297.242683 C986.19456,302.493643 950.450966,303.463526 939.748614,303.482399 L850.2,303.482683 L1007.448,63.2426827 L1007.448,57.0026827 L849.576,57.0026827 L858.936,66.3626827 C886.392,61.0586827 922.584,60.1226827 932.88,60.1226827 L1000.272,60.1226827 L843.024,300.362683 L843.024,306.602683 L1007.136,306.602683 Z M1205.568,306.602683 L1211.808,297.242683 C1184.62656,302.493643 1148.88297,303.463526 1138.18061,303.482399 L1048.632,303.482683 L1205.88,63.2426827 L1205.88,57.0026827 L1048.008,57.0026827 L1057.368,66.3626827 C1084.824,61.0586827 1121.016,60.1226827 1131.312,60.1226827 L1198.704,60.1226827 L1041.456,300.362683 L1041.456,306.602683 L1205.568,306.602683 Z" id="OMMZZ"></path>
                <path d="M141.299079,1.13686838e-13 L144.252665,0.370253073 L144.252665,106.370253 L141.299079,106.740506 L129.251665,59.4462531 L117.206251,106.740506 L114.252665,106.370253 L114.252665,0.370253073 L117.206251,1.13686838e-13 L129.252665,47.2932531 L141.299079,1.13686838e-13 Z M141.252665,12.3332531 L130.799665,53.3702531 L141.252665,94.4062531 L141.252665,12.3332531 Z M117.252665,12.3372531 L117.252665,94.4022531 L127.704665,53.3702531 L117.252665,12.3372531 Z" id="Path-5-Copy"></path>
            </g>
        </g>
    </g>
</svg>